<svg width="48" height="48" viewBox="0 0 48 48" fill="white" xmlns="http://www.w3.org/2000/svg">
<path d="M22.3883 12V12.192H19.1882V30.56C18.8896 31.328 18.5269 32.0907 18.1003 32.848C17.6842 33.6053 17.1829 34.2987 16.5962 34.928C16.0096 35.5467 15.3162 36.0427 14.5162 36.416C13.7269 36.7893 12.8042 36.976 11.7482 36.976C10.6602 36.976 9.69492 36.7893 8.85225 36.416C8.02025 36.0533 7.36958 35.552 6.90025 34.912C6.43092 34.272 6.19625 33.552 6.19625 32.752C6.19625 32.144 6.32425 31.616 6.58025 31.168C6.84692 30.72 7.19892 30.3733 7.63625 30.128C8.07358 29.8827 8.54825 29.76 9.06025 29.76C9.50825 29.76 9.95092 29.8667 10.3882 30.08C10.8256 30.2933 11.1882 30.608 11.4762 31.024C11.7642 31.44 11.9082 31.9467 11.9082 32.544C11.9082 33.12 11.7696 33.6107 11.4922 34.016C11.2256 34.4107 10.8736 34.7147 10.4362 34.928C9.99892 35.1307 9.52425 35.232 9.01225 35.232C8.50025 35.2213 8.00425 35.0507 7.52425 34.72C7.04425 34.3893 6.73492 33.9787 6.59625 33.488C6.72425 34.1493 7.01758 34.7253 7.47625 35.216C7.93492 35.696 8.49492 36.064 9.15625 36.32C9.82825 36.5867 10.5322 36.72 11.2682 36.72C12.0896 36.72 12.7136 36.464 13.1402 35.952C13.5669 35.44 13.8549 34.6773 14.0042 33.664C14.1642 32.6507 14.2442 31.4027 14.2442 29.92V12.192H10.0842V12H22.3883ZM22.17 29.056L36.602 12.192H32.826V12H40.506V12.192H36.874L22.458 29.056H22.17ZM18.106 36V35.808H20.986V12.192H18.106V12H29.146V12.192H25.946V35.808H28.826V36H18.106ZM30.426 36V35.808H33.594L26.746 23.776L30.042 20.064L39.354 35.808H41.946V36H30.426Z"/>
</svg>
